<?xml version="1.0" encoding="utf-8"?>
<!-- Generator: Adobe Illustrator 27.4.1, SVG Export Plug-In . SVG Version: 6.00 Build 0)  -->
<svg version="1.1" id="Calque_1" xmlns="http://www.w3.org/2000/svg" xmlns:xlink="http://www.w3.org/1999/xlink" x="0px" y="0px"
	 viewBox="0 0 39.4 39.4" style="enable-background:new 0 0 39.4 39.4;" xml:space="preserve">
<style type="text/css">
	.st0{fill:#3F4448;}
	.st1{fill:#FFFFFF;}
	.st2{fill:#E9E8E8;}
	.st3{fill:#B7B7B8;}
</style>
<g>
	<g>
		<path class="st0" d="M39,4.8l-4.3-4.3C34.4,0.2,33.9,0,33.5,0H4.6v2.6H2V0H0.7C0.3,0,0,0.3,0,0.7v38.1c0,0.4,0.3,0.7,0.7,0.7h38.1
			c0.4,0,0.7-0.3,0.7-0.7V5.9C39.4,5.6,39.2,5.1,39,4.8z"/>
		<path class="st1" d="M6.6,39.4V21c0-0.7,0.6-1.3,1.3-1.3h23.7c0.7,0,1.3,0.6,1.3,1.3v18.4H6.6z"/>
		<path class="st2" d="M10.5,0v13.1c0,0.7,0.6,1.3,1.3,1.3h19.7c0.7,0,1.3-0.6,1.3-1.3V0H10.5z"/>
		<rect x="22.4" y="2.6" class="st0" width="6.6" height="10.5"/>
		<path class="st1" d="M37.5,35.5c0-0.4-0.3-0.7-0.7-0.7h-1.3c-0.4,0-0.7,0.3-0.7,0.7v1.3c0,0.4,0.3,0.7,0.7,0.7h1.3
			c0.4,0,0.7-0.3,0.7-0.7V35.5z"/>
		<rect x="6.6" y="34.2" class="st3" width="26.3" height="5.3"/>
		<rect x="9.9" y="22.4" class="st3" width="19.7" height="1.3"/>
		<rect x="9.9" y="26.3" class="st3" width="19.7" height="1.3"/>
		<rect x="9.9" y="30.2" class="st3" width="19.7" height="1.3"/>
	</g>
</g>
</svg>
