<?xml version="1.0" encoding="utf-8"?>
<!-- Generator: Adobe Illustrator 27.4.1, SVG Export Plug-In . SVG Version: 6.00 Build 0)  -->
<svg version="1.1" id="Calque_1" xmlns="http://www.w3.org/2000/svg" xmlns:xlink="http://www.w3.org/1999/xlink" x="0px" y="0px"
	 viewBox="0 0 95.5 70.2" style="enable-background:new 0 0 95.5 70.2;" xml:space="preserve">
<style type="text/css">
	.st0{fill:#6A974D;}
	.st1{fill:#85BC56;}
	.st2{fill:#95989B;}
	.st3{fill:#D0D1D1;}
	.st4{fill:#FFFFFF;}
</style>
<g>
	<g>
		<rect y="56.7" class="st0" width="95.5" height="13.4"/>
		<rect class="st1" width="95.5" height="56.7"/>
		<rect x="35.8" y="56.7" class="st2" width="23.9" height="13.4"/>
		<rect x="6" y="6" class="st0" width="83.6" height="44.8"/>
		<rect x="10.4" y="10.4" class="st1" width="74.6" height="35.8"/>
		
			<ellipse transform="matrix(8.659399e-02 -0.9962 0.9962 8.659399e-02 33.0961 92.8191)" class="st0" cx="67.2" cy="28.4" rx="11.9" ry="11.9"/>
		<rect x="35.8" class="st3" width="23.9" height="56.7"/>
		<path class="st4" d="M23.9,26.9c-1.6,0-3-1.3-3-3s1.3-3,3-3s3,1.3,3,3h3c0-2.8-1.9-5.1-4.5-5.8v-1.7h-3v1.7
			c-2.6,0.7-4.5,3-4.5,5.8c0,3.3,2.7,6,6,6c1.6,0,3,1.3,3,3c0,1.6-1.3,3-3,3c-1.6,0-3-1.3-3-3h-3c0,2.8,1.9,5.1,4.5,5.8v1.7h3v-1.7
			c2.6-0.7,4.5-3,4.5-5.8C29.9,29.5,27.2,26.9,23.9,26.9z"/>
	</g>
</g>
</svg>
