<?xml version="1.0" encoding="utf-8"?>
<!-- Generator: Adobe Illustrator 27.4.1, SVG Export Plug-In . SVG Version: 6.00 Build 0)  -->
<svg version="1.1" id="Calque_1" xmlns="http://www.w3.org/2000/svg" xmlns:xlink="http://www.w3.org/1999/xlink" x="0px" y="0px"
	 viewBox="0 0 106 91.8" style="enable-background:new 0 0 106 91.8;" xml:space="preserve">
<style type="text/css">
	.st0{fill:#45ACE1;}
	.st1{fill:#FCD848;}
	.st2{fill:#DF893D;}
	.st3{fill:#FFFFFF;}
	.st4{fill:#2A7B9D;}
	.st5{fill:#3F4448;}
</style>
<g>
	<g>
		<path class="st0" d="M102.1,25.2c0,0,1.9-10.9-6.2-6.1c0,0-0.8-11.2-7.6-3.3c0,0-3.7-6.8-7.8-0.5c-5.5,8.5-9.2,21.8-5.6,44.1
			l6.6-4.4c4.8-14,21.8-15.5,24.2-23.1C107.3,26.6,102.1,25.2,102.1,25.2z"/>
		<path class="st0" d="M35.5,13.4l-17.5,6.4C21.8-1.4,47.3,0,47.3,0S35.4,5.7,35.5,13.4z"/>
		<path class="st0" d="M38.3,17.3l-18.5,2.5c8.5-19.9,33-13,33-13S40,9.8,38.3,17.3z"/>
		<path class="st1" d="M0,33.5l9.6-2.5l0,6.4C9.6,37.3,3.8,36.4,0,33.5z"/>
		<path class="st1" d="M9.6,30.9L0,26.1c6.4-5,13.6-3.4,13.6-3.4L9.6,30.9z"/>
		<path class="st2" d="M56.2,75.9h-3.7v13.9c-0.6,0.1-3.8-0.2-5.1-0.2c-3.3,0-5.9,2.2-5.9,2.2h14.7L56.2,75.9L56.2,75.9z"/>
		<path class="st2" d="M40.6,75.9h-3.7v13.9c-0.6,0.1-3.8-0.2-5.1-0.2c-3.3,0-5.9,2.2-5.9,2.2h14.7V75.9z"/>
		<path class="st0" d="M91.9,46.3c6.8,0-7.2,31-41.2,31c-23,0-42.1-9.2-42.1-37.9C8.6,21.4,19.9,7,43,12.8
			C66.5,18.8,54.4,46.3,91.9,46.3z"/>
		<path class="st3" d="M62.9,73.6c-27.5-0.1-24.7-21.2-49.4-19.7C22.6,81.8,62.9,73.6,62.9,73.6z"/>
		<path class="st4" d="M65.5,33.9C47.8,16.6,29.8,44.9,51.6,56.1c21.4,11,36-8.5,36-8.5S76.8,45,65.5,33.9z"/>
		<circle class="st5" cx="23.1" cy="26.4" r="4.4"/>
	</g>
</g>
</svg>
