<?xml version="1.0" encoding="utf-8"?>
<!-- Generator: Adobe Illustrator 27.4.1, SVG Export Plug-In . SVG Version: 6.00 Build 0)  -->
<svg version="1.1" id="Calque_1" xmlns="http://www.w3.org/2000/svg" xmlns:xlink="http://www.w3.org/1999/xlink" x="0px" y="0px"
	 viewBox="0 0 190 27.5" style="enable-background:new 0 0 190 27.5;" xml:space="preserve">
<style type="text/css">
	.st0{fill:#E4F3FC;}
</style>
<g>
	<path class="st0" d="M10,27V7.2H0V0.6h21.3v6.7h-10V27H10z"/>
	<path class="st0" d="M29.2,0.6h19.2v6.7H36.1v3.3h10.2v6.3H36.1v3.4h12.3V27H29.2V0.6z"/>
	<path class="st0" d="M77.7,17c0,3.3-0.9,5.9-2.8,7.8c-1.9,1.9-4.6,2.8-7.9,2.8c-2,0-3.8-0.5-5.5-1.4c-1.7-0.9-3-2.2-4-3.9
		c-1-1.7-1.5-3.6-1.5-5.8V11c0-2.1,0.5-4.1,1.4-5.7c0.9-1.7,2.2-3,3.9-3.9C62.9,0.5,64.7,0,66.8,0c3.4,0,6,0.9,7.9,2.7
		c1.9,1.8,2.9,4.4,2.9,7.8h-6.8c0-1.3-0.4-2.3-1-3s-1.6-1.1-2.9-1.1c-1.2,0-2.1,0.4-2.9,1.1c-0.8,0.7-1.1,1.8-1.1,3.1v6.2
		c0,1.3,0.4,2.4,1.2,3.1c0.8,0.7,1.8,1.1,2.9,1.1c2.7,0,4-1.4,4-4.1H77.7z"/>
	<path class="st0" d="M84.7,27V0.6h1.4V13h17.5V0.6h1.4V27h-1.4V14.5H86.1V27H84.7z"/>
	<path class="st0" d="M112.3,0.5h1.5l9.2,16.3l9.2-16.3h1.4v26.4h-21.3V0.5z M113.7,25.6h18.5V3.4l-8.5,15h-1.3l-8.6-15.2V25.6z"/>
	<path class="st0" d="M163.4,27h-24.9L151,0L163.4,27z M140.7,25.6h20.5L151,3.3L140.7,25.6z"/>
	<path class="st0" d="M174.1,2.7c-1.5,0.8-2.6,2-3.5,3.5c-0.9,1.5-1.3,3-1.3,4.8v5c0,1.8,0.3,3.3,0.8,4.4c0.7,1.6,1.8,3,3.2,4
		c1.4,1,3.1,1.6,4.9,1.7V13.8h11.6v2.5c0,1.6-0.2,3.1-0.7,4.3c-0.8,2.1-2.1,3.8-3.9,5c-1.8,1.3-3.9,1.9-6.3,1.9
		c-2.2,0-4.2-0.6-6-1.8c-1.8-1.2-3.1-2.8-4-4.8c-0.6-1.4-0.9-3.1-0.9-5v-5c0-2,0.5-3.8,1.5-5.5c1-1.7,2.3-3,4-4
		c1.7-1,3.5-1.5,5.5-1.5c1.6,0,3.1,0.3,4.5,0.8c1.4,0.5,2.5,1.3,3.5,2.4c0.8,0.9,1.4,1.8,1.9,2.9s0.7,2.1,0.7,3.2h-1.4
		c0-0.9-0.3-1.9-0.7-2.8c-0.4-0.9-1-1.7-1.7-2.5c-1.7-1.8-4-2.7-6.9-2.7C177.2,1.4,175.6,1.8,174.1,2.7z M188.4,15.1h-8.8v11
		c1.8-0.1,3.5-0.7,4.9-1.7c1.5-1,2.5-2.4,3.2-4.1c0.5-1.2,0.7-2.5,0.7-4V15.1z"/>
</g>
</svg>
